<?xml version="1.0" encoding="utf-8"?>
<!-- Generator: Adobe Illustrator 23.0.3, SVG Export Plug-In . SVG Version: 6.00 Build 0)  -->
<svg version="1.1" id="Layer_1" xmlns="http://www.w3.org/2000/svg" xmlns:xlink="http://www.w3.org/1999/xlink" x="0px" y="0px"
	 viewBox="0 0 208 54" style="enable-background:new 0 0 208 54;" xml:space="preserve">
<style type="text/css">
	.st0{clip-path:url(#SVGID_2_);}
	.st1{fill:#1E2C5A;}
	.st2{fill:#3780CB;}
	.st3{fill:#FFFFFF;filter:url(#Adobe_OpacityMaskFilter);}
	.st4{mask:url(#mask0_171_6583_1_);}
	.st5{fill:url(#SVGID_3_);}
	.st6{fill:#FFFFFF;filter:url(#Adobe_OpacityMaskFilter_1_);}
	.st7{mask:url(#mask1_171_6583_1_);}
	.st8{fill:url(#SVGID_4_);}
	.st9{fill:#FFFFFF;filter:url(#Adobe_OpacityMaskFilter_2_);}
	.st10{mask:url(#mask2_171_6583_1_);}
	.st11{fill:url(#SVGID_5_);}
	.st12{fill:#FFFFFF;filter:url(#Adobe_OpacityMaskFilter_3_);}
	.st13{mask:url(#mask3_171_6583_1_);}
	.st14{fill:url(#SVGID_6_);}
</style>
<g>
	<defs>
		<rect id="SVGID_1_" width="208" height="54"/>
	</defs>
	<clipPath id="SVGID_2_">
		<use xlink:href="#SVGID_1_"  style="overflow:visible;"/>
	</clipPath>
	<g class="st0">
		<path class="st1" d="M69.4,18.9h8.6l-4.3-9.7L69.4,18.9z M85.1,25.9c0,0.5-0.2,0.9-0.6,1.3c-0.4,0.3-0.9,0.5-1.4,0.5
			c-0.3,0-0.7-0.1-1-0.3c-0.3-0.2-0.6-0.5-0.7-0.9l-2-4.4H68l-2,4.4c-0.2,0.4-0.4,0.7-0.7,0.9c-0.3,0.2-0.6,0.3-1,0.3
			c-0.5,0-1-0.2-1.4-0.5c-0.4-0.3-0.6-0.8-0.6-1.3c0-0.3,0.1-0.6,0.2-0.8l9-19.3c0.2-0.4,0.5-0.8,0.9-1c0.4-0.2,0.8-0.3,1.3-0.3
			s0.9,0.1,1.3,0.3c0.4,0.2,0.7,0.6,0.9,1l9,19.3C85,25.3,85.1,25.6,85.1,25.9"/>
		<path class="st1" d="M108.1,25.8c0,0.5-0.2,0.9-0.6,1.3c-0.4,0.4-0.8,0.6-1.4,0.6c-0.5,0-1-0.2-1.5-0.7L93.8,16.8v8.8
			c0,0.6-0.2,1.1-0.6,1.5c-0.4,0.4-0.9,0.6-1.5,0.6c-0.7,0-1.1-0.2-1.5-0.6c-0.4-0.4-0.6-0.9-0.6-1.5V6.5c0-0.6,0.2-1.1,0.6-1.5
			c0.4-0.4,0.9-0.6,1.5-0.6c0.6,0,1.2,0.2,1.5,0.6c0.4,0.4,0.6,0.9,0.6,1.5v8.4L104.3,5c0.4-0.4,0.8-0.6,1.3-0.6
			c0.5,0,0.9,0.2,1.3,0.6c0.4,0.4,0.6,0.8,0.6,1.3c0,0.5-0.2,1-0.7,1.4l-8.8,8l9.3,8.7C107.8,24.8,108.1,25.2,108.1,25.8z"/>
		<path class="st1" d="M120.6,24.1c5.3,0,7.9-2.7,7.9-8.1s-2.6-8-7.9-8h-4v16.1H120.6z M112.9,27c-0.4-0.3-0.5-0.8-0.5-1.5v-19
			c0-0.6,0.2-1.1,0.5-1.5c0.4-0.3,0.9-0.5,1.5-0.5h6.5c3.8,0,6.7,1,8.8,3c2.1,2,3.1,4.8,3.1,8.4c0,3.6-1,6.5-3.1,8.5
			c-2.1,2-5,3-8.8,3h-6.5C113.8,27.5,113.3,27.3,112.9,27z"/>
		<path class="st1" d="M138.9,27.1c-0.4-0.4-0.6-0.9-0.6-1.5V6.5c0-0.6,0.2-1.1,0.6-1.5c0.4-0.4,0.9-0.6,1.5-0.6s1.2,0.2,1.5,0.6
			c0.4,0.4,0.6,0.9,0.6,1.5v19.1c0,0.6-0.2,1.1-0.6,1.5c-0.4,0.4-0.9,0.6-1.5,0.6C139.7,27.7,139.2,27.5,138.9,27.1"/>
		<path class="st1" d="M154.7,27.1c-0.4-0.4-0.6-0.9-0.6-1.5V8h-5.9c-1.3,0-2-0.6-2-1.7s0.7-1.7,2-1.7h16.1c1.3,0,2,0.6,2,1.7
			s-0.7,1.7-2,1.7h-5.9v17.6c0,0.6-0.2,1.1-0.6,1.5c-0.4,0.4-0.9,0.6-1.5,0.6C155.6,27.7,155.1,27.5,154.7,27.1z"/>
		<path class="st1" d="M172.5,18.9h8.6l-4.3-9.7L172.5,18.9z M188.2,25.9c0,0.5-0.2,0.9-0.6,1.3c-0.4,0.3-0.9,0.5-1.4,0.5
			c-0.3,0-0.7-0.1-1-0.3c-0.3-0.2-0.5-0.5-0.7-0.9l-2-4.4h-11.5l-2,4.4c-0.2,0.4-0.4,0.7-0.7,0.9c-0.3,0.2-0.6,0.3-1,0.3
			c-0.5,0-1-0.2-1.4-0.5c-0.4-0.3-0.6-0.8-0.6-1.3c0-0.3,0.1-0.6,0.2-0.8l9-19.3c0.2-0.4,0.5-0.8,0.9-1c0.4-0.2,0.8-0.3,1.3-0.3
			c0.4,0,0.9,0.1,1.3,0.3c0.4,0.2,0.7,0.6,0.9,1l9,19.3C188.1,25.3,188.2,25.6,188.2,25.9"/>
		<path class="st1" d="M193.2,27c-0.3-0.3-0.5-0.8-0.5-1.4V6.5c0-0.6,0.2-1.1,0.6-1.5c0.4-0.4,0.9-0.6,1.5-0.6
			c0.6,0,1.2,0.2,1.5,0.6c0.4,0.4,0.6,0.9,0.6,1.5v17.6h9.2c1.3,0,2,0.6,2,1.7c0,1.2-0.7,1.7-2,1.7h-11.4
			C194,27.5,193.6,27.3,193.2,27z"/>
		<path class="st2" d="M65.4,45.6c2.5,0,3.8-1.3,3.8-3.9c0-2.6-1.3-3.9-3.8-3.9h-2v7.8L65.4,45.6L65.4,45.6z M62,46.7
			c-0.1-0.1-0.2-0.3-0.2-0.5v-8.8c0-0.2,0.1-0.4,0.2-0.5c0.1-0.1,0.3-0.2,0.5-0.2h2.9c1.7,0,3,0.4,3.9,1.3c0.9,0.9,1.4,2.2,1.4,3.8
			c0,1.6-0.5,2.9-1.4,3.8c-0.9,0.9-2.2,1.3-3.9,1.3h-2.9C62.4,46.9,62.2,46.8,62,46.7"/>
		<path class="st2" d="M74.5,41.2c-0.3,0.4-0.5,0.9-0.6,1.5h3.8c0-0.7-0.2-1.2-0.5-1.5c-0.3-0.4-0.7-0.5-1.3-0.5
			C75.3,40.7,74.9,40.8,74.5,41.2z M78.8,45.2c0.1,0.1,0.1,0.2,0.1,0.4c0,0.3-0.2,0.5-0.5,0.7c-0.3,0.2-0.7,0.3-1.1,0.4
			c-0.4,0.1-0.8,0.2-1.2,0.2c-1.1,0-2-0.3-2.7-1c-0.7-0.7-1-1.6-1-2.7c0-0.7,0.1-1.4,0.4-1.9c0.3-0.6,0.7-1,1.2-1.3
			c0.5-0.3,1.1-0.5,1.8-0.5c1,0,1.7,0.3,2.3,0.9c0.5,0.6,0.8,1.4,0.8,2.5c0,0.4-0.2,0.6-0.5,0.6h-4.5c0.1,1.5,0.8,2.3,2.2,2.3
			c0.4,0,0.7-0.1,0.9-0.2c0.3-0.1,0.5-0.2,0.8-0.4c0,0,0.1-0.1,0.2-0.1c0.1-0.1,0.2-0.1,0.3-0.1C78.6,45,78.7,45.1,78.8,45.2"/>
		<path class="st2" d="M80.9,46.4c-0.2-0.1-0.3-0.2-0.4-0.3c-0.1-0.1-0.1-0.2-0.1-0.4c0-0.2,0.1-0.3,0.1-0.4
			c0.1-0.1,0.2-0.2,0.3-0.2c0.1,0,0.3,0.1,0.6,0.2c0.3,0.2,0.6,0.3,0.9,0.4c0.3,0.1,0.6,0.2,1,0.2c0.5,0,0.8-0.1,1.1-0.2
			c0.3-0.2,0.4-0.4,0.4-0.7c0-0.2-0.1-0.3-0.2-0.5c-0.1-0.1-0.3-0.2-0.5-0.3c-0.3-0.1-0.6-0.2-1.1-0.3c-0.9-0.2-1.5-0.4-1.9-0.8
			c-0.4-0.3-0.6-0.8-0.6-1.3c0-0.4,0.1-0.8,0.4-1.1c0.2-0.3,0.6-0.6,1-0.8c0.4-0.2,0.9-0.3,1.5-0.3c0.4,0,0.8,0.1,1.1,0.2
			c0.4,0.1,0.7,0.3,1,0.4c0.3,0.2,0.5,0.5,0.5,0.7c0,0.2-0.1,0.3-0.1,0.4c-0.1,0.1-0.2,0.2-0.3,0.2c-0.1,0-0.2,0-0.3-0.1
			c-0.1,0-0.2-0.1-0.3-0.2c-0.3-0.2-0.5-0.3-0.7-0.4c-0.2-0.1-0.5-0.1-0.9-0.1c-0.4,0-0.7,0.1-1,0.3c-0.2,0.2-0.4,0.4-0.4,0.7
			c0,0.3,0.1,0.5,0.3,0.6c0.2,0.2,0.7,0.3,1.3,0.4c0.7,0.1,1.2,0.3,1.5,0.5c0.4,0.2,0.6,0.4,0.8,0.7c0.2,0.3,0.2,0.6,0.2,1
			c0,0.6-0.3,1.1-0.8,1.5C85,46.8,84.3,47,83.4,47C82.4,46.9,81.6,46.7,80.9,46.4"/>
		<path class="st2" d="M92.4,46.4c-0.2-0.1-0.3-0.2-0.4-0.3c-0.1-0.1-0.1-0.2-0.1-0.4c0-0.2,0.1-0.3,0.1-0.4
			c0.1-0.1,0.2-0.2,0.3-0.2c0.1,0,0.3,0.1,0.6,0.2c0.3,0.2,0.6,0.3,0.9,0.4c0.3,0.1,0.6,0.2,1,0.2c0.5,0,0.8-0.1,1.1-0.2
			c0.3-0.2,0.4-0.4,0.4-0.7c0-0.2-0.1-0.3-0.2-0.5c-0.1-0.1-0.3-0.2-0.5-0.3c-0.3-0.1-0.6-0.2-1.1-0.3c-0.9-0.2-1.5-0.4-1.9-0.8
			c-0.4-0.3-0.6-0.8-0.6-1.3c0-0.4,0.1-0.8,0.4-1.1c0.2-0.3,0.6-0.6,1-0.8c0.4-0.2,0.9-0.3,1.5-0.3c0.4,0,0.8,0.1,1.1,0.2
			c0.4,0.1,0.7,0.3,1,0.4c0.3,0.2,0.5,0.5,0.5,0.7c0,0.2-0.1,0.3-0.1,0.4c-0.1,0.1-0.2,0.2-0.3,0.2c-0.1,0-0.2,0-0.3-0.1
			c-0.1,0-0.2-0.1-0.3-0.2c-0.3-0.2-0.5-0.3-0.7-0.4c-0.2-0.1-0.5-0.1-0.9-0.1c-0.4,0-0.7,0.1-1,0.3c-0.2,0.2-0.4,0.4-0.4,0.7
			c0,0.3,0.1,0.5,0.3,0.6c0.2,0.2,0.7,0.3,1.3,0.4c0.7,0.1,1.2,0.3,1.5,0.5c0.4,0.2,0.6,0.4,0.8,0.7c0.2,0.3,0.2,0.6,0.2,1
			c0,0.6-0.3,1.1-0.8,1.5c-0.5,0.4-1.2,0.6-2.1,0.6C93.9,46.9,93,46.7,92.4,46.4"/>
		<path class="st2" d="M104.3,45.1c0.3-0.4,0.5-1.1,0.5-1.9c0-0.8-0.2-1.4-0.5-1.9c-0.3-0.4-0.8-0.7-1.5-0.7c-0.6,0-1.1,0.2-1.5,0.7
			c-0.3,0.4-0.5,1.1-0.5,1.9c0,0.8,0.2,1.5,0.5,1.9c0.3,0.4,0.8,0.6,1.5,0.6C103.5,45.8,104,45.6,104.3,45.1 M100.9,46.5
			c-0.5-0.3-0.9-0.7-1.2-1.3c-0.3-0.6-0.4-1.2-0.4-2c0-0.7,0.1-1.4,0.4-2c0.3-0.6,0.7-1,1.2-1.3c0.5-0.3,1.1-0.4,1.9-0.4
			s1.3,0.2,1.9,0.4c0.5,0.3,0.9,0.7,1.2,1.3c0.3,0.6,0.4,1.2,0.4,2c0,0.8-0.1,1.4-0.4,2c-0.3,0.6-0.7,1-1.2,1.3
			c-0.5,0.3-1.1,0.4-1.9,0.4S101.5,46.8,100.9,46.5z"/>
		<path class="st2" d="M108.4,46.8c-0.1-0.1-0.2-0.3-0.2-0.5v-5.9c0-0.2,0.1-0.4,0.2-0.5c0.1-0.1,0.3-0.2,0.5-0.2
			c0.2,0,0.4,0.1,0.5,0.2c0.1,0.1,0.2,0.3,0.2,0.5v5.9c0,0.2-0.1,0.4-0.2,0.5c-0.1,0.1-0.3,0.2-0.5,0.2
			C108.8,46.9,108.6,46.9,108.4,46.8z M108.3,37.9c-0.2-0.2-0.2-0.4-0.2-0.6c0-0.3,0.1-0.5,0.2-0.6c0.2-0.2,0.4-0.2,0.7-0.2
			s0.5,0.1,0.7,0.2c0.2,0.2,0.3,0.4,0.3,0.6c0,0.3-0.1,0.5-0.2,0.6c-0.2,0.2-0.4,0.2-0.7,0.2C108.7,38.2,108.5,38.1,108.3,37.9z"/>
		<path class="st2" d="M118.5,42.5v3.8c0,0.2-0.1,0.4-0.2,0.5c-0.1,0.1-0.3,0.2-0.5,0.2c-0.2,0-0.4-0.1-0.5-0.2
			c-0.1-0.1-0.2-0.3-0.2-0.5v-3.7c0-0.6-0.1-1-0.4-1.3c-0.2-0.3-0.6-0.4-1.1-0.4c-0.6,0-1.1,0.2-1.4,0.5c-0.4,0.4-0.5,0.9-0.5,1.5
			v3.4c0,0.2-0.1,0.4-0.2,0.5c-0.1,0.1-0.3,0.2-0.5,0.2c-0.2,0-0.4-0.1-0.5-0.2c-0.1-0.1-0.2-0.3-0.2-0.5v-5.9
			c0-0.2,0.1-0.4,0.2-0.5c0.1-0.1,0.3-0.2,0.5-0.2c0.2,0,0.4,0.1,0.5,0.2c0.1,0.1,0.2,0.3,0.2,0.5v0.6c0.2-0.4,0.6-0.8,1-1
			c0.4-0.2,0.9-0.3,1.4-0.3C117.6,39.6,118.5,40.5,118.5,42.5"/>
		<path class="st2" d="M120.8,46.4c-0.2-0.1-0.3-0.2-0.4-0.3c-0.1-0.1-0.1-0.2-0.1-0.4c0-0.2,0.1-0.3,0.1-0.4
			c0.1-0.1,0.2-0.2,0.3-0.2c0.1,0,0.3,0.1,0.6,0.2c0.3,0.2,0.6,0.3,0.9,0.4c0.3,0.1,0.6,0.2,1,0.2c0.5,0,0.8-0.1,1.1-0.2
			c0.3-0.2,0.4-0.4,0.4-0.7c0-0.2-0.1-0.3-0.2-0.5c-0.1-0.1-0.3-0.2-0.5-0.3c-0.3-0.1-0.6-0.2-1.1-0.3c-0.9-0.2-1.5-0.4-1.9-0.8
			c-0.4-0.3-0.6-0.8-0.6-1.3c0-0.4,0.1-0.8,0.4-1.1c0.2-0.3,0.6-0.6,1-0.8c0.4-0.2,0.9-0.3,1.5-0.3c0.4,0,0.8,0.1,1.1,0.2
			c0.4,0.1,0.7,0.3,1,0.4c0.3,0.2,0.5,0.5,0.5,0.7c0,0.2-0.1,0.3-0.1,0.4c-0.1,0.1-0.2,0.2-0.3,0.2c-0.1,0-0.2,0-0.3-0.1
			c-0.1,0-0.2-0.1-0.3-0.2c-0.3-0.2-0.5-0.3-0.7-0.4c-0.2-0.1-0.5-0.1-0.9-0.1c-0.4,0-0.7,0.1-1,0.3c-0.2,0.2-0.4,0.4-0.4,0.7
			c0,0.3,0.1,0.5,0.3,0.6c0.2,0.2,0.7,0.3,1.3,0.4c0.7,0.1,1.2,0.3,1.5,0.5c0.4,0.2,0.6,0.4,0.8,0.7c0.2,0.3,0.2,0.6,0.2,1
			c0,0.6-0.3,1.1-0.8,1.5c-0.5,0.4-1.2,0.6-2.1,0.6C122.3,46.9,121.5,46.7,120.8,46.4"/>
		<path class="st2" d="M133.9,41.2c-0.3,0.4-0.5,0.9-0.6,1.5h3.8c0-0.7-0.2-1.2-0.5-1.5c-0.3-0.4-0.7-0.5-1.3-0.5
			C134.7,40.7,134.3,40.8,133.9,41.2z M138.2,45.2c0.1,0.1,0.1,0.2,0.1,0.4c0,0.3-0.2,0.5-0.5,0.7c-0.3,0.2-0.7,0.3-1.1,0.4
			c-0.4,0.1-0.8,0.2-1.2,0.2c-1.1,0-2-0.3-2.7-1c-0.7-0.7-1-1.6-1-2.7c0-0.7,0.1-1.4,0.4-1.9c0.3-0.6,0.7-1,1.2-1.3
			c0.5-0.3,1.1-0.5,1.8-0.5c1,0,1.7,0.3,2.3,0.9c0.5,0.6,0.8,1.4,0.8,2.5c0,0.4-0.2,0.6-0.5,0.6h-4.5c0.1,1.5,0.8,2.3,2.2,2.3
			c0.4,0,0.7-0.1,0.9-0.2c0.3-0.1,0.5-0.2,0.8-0.4c0,0,0.1-0.1,0.2-0.1c0.1-0.1,0.2-0.1,0.3-0.1C138,45,138.1,45.1,138.2,45.2"/>
		<path class="st2" d="M144.1,46c0.1,0.1,0.1,0.2,0.1,0.4c0,0.2-0.1,0.3-0.2,0.4c-0.2,0.1-0.4,0.1-0.7,0.1l-0.4,0
			c-0.8-0.1-1.4-0.3-1.8-0.7c-0.4-0.4-0.6-1-0.6-1.9v-3.4h-0.9c-0.4,0-0.6-0.2-0.6-0.6c0-0.2,0.1-0.3,0.2-0.4
			c0.1-0.1,0.3-0.2,0.5-0.2h0.9v-1.5c0-0.2,0.1-0.4,0.2-0.5c0.1-0.1,0.3-0.2,0.5-0.2c0.2,0,0.4,0.1,0.5,0.2c0.1,0.1,0.2,0.3,0.2,0.5
			v1.5h1.4c0.2,0,0.4,0.1,0.5,0.2c0.1,0.1,0.2,0.2,0.2,0.4c0,0.2-0.1,0.3-0.2,0.4c-0.1,0.1-0.3,0.2-0.5,0.2h-1.4v3.5
			c0,0.5,0.1,0.8,0.3,1c0.2,0.2,0.5,0.3,0.9,0.4l0.4,0C143.9,45.8,144.1,45.9,144.1,46z"/>
		<path class="st2" d="M154.4,45.1c0.3-0.4,0.5-1.1,0.5-1.9c0-0.8-0.2-1.4-0.5-1.9c-0.3-0.4-0.8-0.7-1.5-0.7c-0.6,0-1.1,0.2-1.5,0.7
			c-0.4,0.4-0.5,1-0.5,1.8c0,0.8,0.2,1.4,0.5,1.9c0.4,0.4,0.9,0.7,1.5,0.7C153.5,45.8,154,45.6,154.4,45.1 M156.2,36.7
			c0.1,0.1,0.2,0.3,0.2,0.5v9c0,0.2-0.1,0.4-0.2,0.5c-0.1,0.1-0.3,0.2-0.5,0.2c-0.2,0-0.4-0.1-0.5-0.2c-0.1-0.1-0.2-0.3-0.2-0.5
			v-0.6c-0.2,0.4-0.5,0.8-0.9,1c-0.4,0.2-0.9,0.3-1.4,0.3c-0.6,0-1.2-0.2-1.6-0.5c-0.5-0.3-0.9-0.8-1.1-1.3
			c-0.3-0.6-0.4-1.2-0.4-1.9c0-0.7,0.1-1.4,0.4-1.9c0.3-0.5,0.6-1,1.1-1.3c0.5-0.3,1-0.4,1.6-0.4c0.5,0,1,0.1,1.4,0.3
			c0.4,0.2,0.7,0.5,0.9,1v-3.7c0-0.2,0.1-0.4,0.2-0.5c0.1-0.1,0.3-0.2,0.5-0.2C155.8,36.5,156,36.6,156.2,36.7"/>
		<path class="st2" d="M160.4,41.2c-0.3,0.4-0.5,0.9-0.6,1.5h3.8c0-0.7-0.2-1.2-0.5-1.5c-0.3-0.4-0.7-0.5-1.3-0.5
			C161.2,40.7,160.8,40.8,160.4,41.2z M164.6,45.2c0.1,0.1,0.1,0.2,0.1,0.4c0,0.3-0.2,0.5-0.5,0.7c-0.3,0.2-0.7,0.3-1.1,0.4
			c-0.4,0.1-0.8,0.2-1.2,0.2c-1.1,0-2-0.3-2.7-1c-0.7-0.7-1-1.6-1-2.7c0-0.7,0.1-1.4,0.4-1.9c0.3-0.6,0.7-1,1.2-1.3
			c0.5-0.3,1.1-0.5,1.8-0.5c1,0,1.7,0.3,2.3,0.9s0.8,1.4,0.8,2.5c0,0.4-0.2,0.6-0.5,0.6h-4.5c0.1,1.5,0.8,2.3,2.2,2.3
			c0.4,0,0.7-0.1,0.9-0.2c0.3-0.1,0.5-0.2,0.8-0.4c0,0,0.1-0.1,0.2-0.1c0.1-0.1,0.2-0.1,0.3-0.1C164.5,45,164.6,45.1,164.6,45.2"/>
		<path class="st2" d="M166.8,46.4c-0.2-0.1-0.3-0.2-0.4-0.3c-0.1-0.1-0.1-0.2-0.1-0.4c0-0.2,0.1-0.3,0.1-0.4
			c0.1-0.1,0.2-0.2,0.3-0.2c0.1,0,0.3,0.1,0.6,0.2c0.3,0.2,0.6,0.3,0.9,0.4c0.3,0.1,0.6,0.2,1,0.2c0.5,0,0.8-0.1,1.1-0.2
			c0.3-0.2,0.4-0.4,0.4-0.7c0-0.2-0.1-0.3-0.2-0.5c-0.1-0.1-0.3-0.2-0.5-0.3c-0.3-0.1-0.6-0.2-1.1-0.3c-0.9-0.2-1.5-0.4-1.9-0.8
			c-0.4-0.3-0.6-0.8-0.6-1.3c0-0.4,0.1-0.8,0.4-1.1c0.2-0.3,0.6-0.6,1-0.8c0.4-0.2,0.9-0.3,1.5-0.3c0.4,0,0.8,0.1,1.1,0.2
			c0.4,0.1,0.7,0.3,1,0.4c0.3,0.2,0.5,0.5,0.5,0.7c0,0.2-0.1,0.3-0.1,0.4c-0.1,0.1-0.2,0.2-0.3,0.2c-0.1,0-0.2,0-0.3-0.1
			c-0.1,0-0.2-0.1-0.3-0.2c-0.3-0.2-0.5-0.3-0.7-0.4c-0.2-0.1-0.5-0.1-0.9-0.1c-0.4,0-0.7,0.1-1,0.3c-0.2,0.2-0.4,0.4-0.4,0.7
			c0,0.3,0.1,0.5,0.3,0.6c0.2,0.2,0.7,0.3,1.3,0.4c0.7,0.1,1.2,0.3,1.5,0.5c0.4,0.2,0.6,0.4,0.8,0.7c0.2,0.3,0.2,0.6,0.2,1
			c0,0.6-0.3,1.1-0.8,1.5c-0.5,0.4-1.2,0.6-2.1,0.6C168.2,46.9,167.4,46.7,166.8,46.4"/>
		<path class="st2" d="M178.4,46.8c-0.1-0.1-0.2-0.3-0.2-0.5v-9c0-0.2,0.1-0.4,0.2-0.5c0.1-0.1,0.3-0.2,0.5-0.2
			c0.2,0,0.4,0.1,0.5,0.2s0.2,0.3,0.2,0.5v9c0,0.2-0.1,0.4-0.2,0.5c-0.1,0.1-0.3,0.2-0.5,0.2C178.8,46.9,178.6,46.9,178.4,46.8z"/>
		<path class="st2" d="M182.3,46.8c-0.1-0.1-0.2-0.3-0.2-0.5v-5.9c0-0.2,0.1-0.4,0.2-0.5c0.1-0.1,0.3-0.2,0.5-0.2
			c0.2,0,0.4,0.1,0.5,0.2c0.1,0.1,0.2,0.3,0.2,0.5v5.9c0,0.2-0.1,0.4-0.2,0.5c-0.1,0.1-0.3,0.2-0.5,0.2
			C182.6,46.9,182.4,46.9,182.3,46.8z M182.1,37.9c-0.2-0.2-0.2-0.4-0.2-0.6c0-0.3,0.1-0.5,0.2-0.6c0.2-0.2,0.4-0.2,0.7-0.2
			s0.5,0.1,0.7,0.2c0.2,0.2,0.3,0.4,0.3,0.6c0,0.3-0.1,0.5-0.2,0.6c-0.2,0.2-0.4,0.2-0.7,0.2C182.5,38.2,182.3,38.1,182.1,37.9z"/>
		<path class="st2" d="M187.6,41.2c-0.3,0.4-0.5,0.9-0.6,1.5h3.8c0-0.7-0.2-1.2-0.5-1.5c-0.3-0.4-0.7-0.5-1.3-0.5
			C188.4,40.7,187.9,40.8,187.6,41.2z M191.8,45.2c0.1,0.1,0.1,0.2,0.1,0.4c0,0.3-0.2,0.5-0.5,0.7c-0.3,0.2-0.7,0.3-1.1,0.4
			c-0.4,0.1-0.8,0.2-1.2,0.2c-1.1,0-2-0.3-2.7-1c-0.7-0.7-1-1.6-1-2.7c0-0.7,0.1-1.4,0.4-1.9c0.3-0.6,0.7-1,1.2-1.3
			c0.5-0.3,1.1-0.5,1.8-0.5c1,0,1.7,0.3,2.3,0.9c0.5,0.6,0.8,1.4,0.8,2.5c0,0.4-0.2,0.6-0.5,0.6H187c0.1,1.5,0.8,2.3,2.2,2.3
			c0.4,0,0.7-0.1,0.9-0.2c0.3-0.1,0.5-0.2,0.8-0.4c0,0,0.1-0.1,0.2-0.1c0.1-0.1,0.2-0.1,0.3-0.1C191.6,45,191.7,45.1,191.8,45.2"/>
		<path class="st2" d="M200.3,42.5v3.8c0,0.2-0.1,0.4-0.2,0.5c-0.1,0.1-0.3,0.2-0.5,0.2c-0.2,0-0.4-0.1-0.5-0.2
			c-0.1-0.1-0.2-0.3-0.2-0.5v-3.7c0-0.6-0.1-1-0.4-1.3c-0.2-0.3-0.6-0.4-1.1-0.4c-0.6,0-1.1,0.2-1.4,0.5c-0.4,0.4-0.5,0.9-0.5,1.5
			v3.4c0,0.2-0.1,0.4-0.2,0.5c-0.1,0.1-0.3,0.2-0.5,0.2c-0.2,0-0.4-0.1-0.5-0.2c-0.1-0.1-0.2-0.3-0.2-0.5v-5.9
			c0-0.2,0.1-0.4,0.2-0.5c0.1-0.1,0.3-0.2,0.5-0.2c0.2,0,0.4,0.1,0.5,0.2c0.1,0.1,0.2,0.3,0.2,0.5v0.6c0.2-0.4,0.6-0.8,1-1
			c0.4-0.2,0.9-0.3,1.4-0.3C199.5,39.6,200.3,40.5,200.3,42.5"/>
		<path class="st2" d="M202.7,46.4c-0.2-0.1-0.3-0.2-0.4-0.3c-0.1-0.1-0.1-0.2-0.1-0.4c0-0.2,0.1-0.3,0.1-0.4
			c0.1-0.1,0.2-0.2,0.3-0.2c0.1,0,0.3,0.1,0.6,0.2c0.3,0.2,0.6,0.3,0.9,0.4c0.3,0.1,0.6,0.2,1,0.2c0.5,0,0.8-0.1,1.1-0.2
			c0.3-0.2,0.4-0.4,0.4-0.7c0-0.2-0.1-0.3-0.2-0.5c-0.1-0.1-0.3-0.2-0.5-0.3c-0.3-0.1-0.6-0.2-1.1-0.3c-0.9-0.2-1.5-0.4-1.9-0.8
			c-0.4-0.3-0.6-0.8-0.6-1.3c0-0.4,0.1-0.8,0.4-1.1c0.2-0.3,0.6-0.6,1-0.8c0.4-0.2,0.9-0.3,1.5-0.3c0.4,0,0.8,0.1,1.1,0.2
			c0.4,0.1,0.7,0.3,1,0.4c0.3,0.2,0.5,0.5,0.5,0.7c0,0.2-0.1,0.3-0.1,0.4c-0.1,0.1-0.2,0.2-0.3,0.2c-0.1,0-0.2,0-0.3-0.1
			c-0.1,0-0.2-0.1-0.3-0.2c-0.3-0.2-0.5-0.3-0.7-0.4c-0.2-0.1-0.5-0.1-0.9-0.1c-0.4,0-0.7,0.1-1,0.3c-0.2,0.2-0.4,0.4-0.4,0.7
			c0,0.3,0.1,0.5,0.3,0.6c0.2,0.2,0.7,0.3,1.3,0.4c0.7,0.1,1.2,0.3,1.5,0.5c0.4,0.2,0.6,0.4,0.8,0.7c0.2,0.3,0.2,0.6,0.2,1
			c0,0.6-0.3,1.1-0.8,1.5c-0.5,0.4-1.2,0.6-2.1,0.6C204.1,46.9,203.3,46.7,202.7,46.4"/>
		<defs>
			<filter id="Adobe_OpacityMaskFilter" filterUnits="userSpaceOnUse" x="10.9" y="21.9" width="14.5" height="18.5">
				<feColorMatrix  type="matrix" values="1 0 0 0 0  0 1 0 0 0  0 0 1 0 0  0 0 0 1 0"/>
			</filter>
		</defs>
		<mask maskUnits="userSpaceOnUse" x="10.9" y="21.9" width="14.5" height="18.5" id="mask0_171_6583_1_">
			<path class="st3" d="M16.9,23.4c-2.1,2.6-6,6.2-6,9.7c0,4,3.2,7.3,7.3,7.3c4,0,7.3-3.2,7.3-7.3c0-3.6-3.9-7.1-6-9.7l-1.3-1.5
				L16.9,23.4L16.9,23.4z"/>
		</mask>
		<g class="st4">
			
				<linearGradient id="SVGID_3_" gradientUnits="userSpaceOnUse" x1="18.1894" y1="55.6669" x2="18.1894" y2="37.0472" gradientTransform="matrix(1 0 0 -1 0 56)">
				<stop  offset="0" style="stop-color:#4FB5EA"/>
				<stop  offset="1" style="stop-color:#2056A8"/>
			</linearGradient>
			<path class="st5" d="M16.9,23.4c-2.1,2.6-6,6.2-6,9.7c0,4,3.2,7.3,7.3,7.3c4,0,7.3-3.2,7.3-7.3c0-3.6-3.9-7.1-6-9.7l-1.3-1.5
				L16.9,23.4L16.9,23.4z"/>
		</g>
		<defs>
			<filter id="Adobe_OpacityMaskFilter_1_" filterUnits="userSpaceOnUse" x="28.7" y="21.9" width="14.5" height="18.5">
				<feColorMatrix  type="matrix" values="1 0 0 0 0  0 1 0 0 0  0 0 1 0 0  0 0 0 1 0"/>
			</filter>
		</defs>
		<mask maskUnits="userSpaceOnUse" x="28.7" y="21.9" width="14.5" height="18.5" id="mask1_171_6583_1_">
			<path class="st6" d="M34.7,23.4c-2.1,2.6-6,6.2-6,9.7c0,4,3.2,7.3,7.3,7.3s7.3-3.2,7.3-7.3c0-3.6-3.9-7.1-6-9.7l-1.3-1.5
				L34.7,23.4z"/>
		</mask>
		<g class="st7">
			
				<linearGradient id="SVGID_4_" gradientUnits="userSpaceOnUse" x1="35.9424" y1="-838.982" x2="35.9424" y2="-857.06" gradientTransform="matrix(1 0 0 -1 0 56)">
				<stop  offset="0" style="stop-color:#4FB5EA"/>
				<stop  offset="1" style="stop-color:#2056A8"/>
			</linearGradient>
			<path class="st8" d="M34.7,23.4c-2.1,2.6-6,6.2-6,9.7c0,4,3.2,7.3,7.3,7.3c4,0,7.3-3.2,7.3-7.3c0-3.6-3.9-7.1-6-9.7l-1.3-1.5
				L34.7,23.4z"/>
		</g>
		<defs>
			<filter id="Adobe_OpacityMaskFilter_2_" filterUnits="userSpaceOnUse" x="19.8" y="9" width="14.5" height="18.5">
				<feColorMatrix  type="matrix" values="1 0 0 0 0  0 1 0 0 0  0 0 1 0 0  0 0 0 1 0"/>
			</filter>
		</defs>
		<mask maskUnits="userSpaceOnUse" x="19.8" y="9" width="14.5" height="18.5" id="mask2_171_6583_1_">
			<path class="st9" d="M19.8,16.2c0,3.6,3.9,7.1,6,9.7l1.3,1.5l1.3-1.5c2.1-2.6,6-6.2,6-9.7c0-4-3.2-7.2-7.3-7.2
				S19.8,12.2,19.8,16.2z"/>
		</mask>
		<g class="st10">
			
				<linearGradient id="SVGID_5_" gradientUnits="userSpaceOnUse" x1="27.0658" y1="-838.982" x2="27.0658" y2="37.0472" gradientTransform="matrix(1 0 0 -1 0 56)">
				<stop  offset="0" style="stop-color:#4FB5EA"/>
				<stop  offset="1" style="stop-color:#2056A8"/>
			</linearGradient>
			<path class="st11" d="M19.8,16.2c0,3.6,3.9,7.1,6,9.7l1.3,1.5l1.3-1.5c2.1-2.6,6-6.2,6-9.7c0-4-3.2-7.2-7.3-7.2
				C23,9,19.8,12.2,19.8,16.2z"/>
		</g>
		<defs>
			<filter id="Adobe_OpacityMaskFilter_3_" filterUnits="userSpaceOnUse" x="0" y="0" width="54.1" height="54">
				<feColorMatrix  type="matrix" values="1 0 0 0 0  0 1 0 0 0  0 0 1 0 0  0 0 0 1 0"/>
			</filter>
		</defs>
		<mask maskUnits="userSpaceOnUse" x="0" y="0" width="54.1" height="54" id="mask3_171_6583_1_">
			<path class="st12" d="M7.9,7.9C2.8,13,0,19.8,0,27s2.8,14,7.9,19.1C13,51.2,19.8,54,27.1,54s14-2.8,19.1-7.9
				c5.1-5.1,7.9-11.9,7.9-19.1s-2.8-14-7.9-19.1C41.1,2.8,34.3,0,27.1,0C19.8,0,13,2.8,7.9,7.9z M2.3,27c0-13.6,11.1-24.7,24.7-24.7
				S51.8,13.4,51.8,27c0,13.6-11.1,24.7-24.7,24.7C13.4,51.7,2.3,40.7,2.3,27L2.3,27z"/>
		</mask>
		<g class="st13">
			
				<linearGradient id="SVGID_6_" gradientUnits="userSpaceOnUse" x1="27.0623" y1="55.6669" x2="27.0623" y2="37.0472" gradientTransform="matrix(1 0 0 -1 0 56)">
				<stop  offset="0" style="stop-color:#4FB5EA"/>
				<stop  offset="1" style="stop-color:#2056A8"/>
			</linearGradient>
			<path class="st14" d="M7.9,7.9C2.8,13,0,19.8,0,27c0,7.2,2.8,14,7.9,19.1C13,51.2,19.8,54,27.1,54s14-2.8,19.1-7.9
				c5.1-5.1,7.9-11.9,7.9-19.1s-2.8-14-7.9-19.1C41.1,2.8,34.3,0,27.1,0C19.8,0,13,2.8,7.9,7.9z M2.3,27c0-13.6,11.1-24.7,24.7-24.7
				c13.7,0,24.7,11.1,24.7,24.7c0,13.6-11.1,24.7-24.7,24.7C13.4,51.7,2.3,40.7,2.3,27"/>
		</g>
	</g>
</g>
</svg>
