<svg width="156" height="131" viewBox="0 0 156 131" fill="none" xmlns="http://www.w3.org/2000/svg">
<g clip-path="url(#clip0_1_257)">
<path d="M7.61697 103.578H16.8406L12.2152 93.166L7.61697 103.578ZM24.3992 111.07C24.3992 111.609 24.1813 112.062 23.7534 112.432C23.3294 112.803 22.8353 112.998 22.2713 112.998C21.9017 112.998 21.5438 112.901 21.2287 112.694C20.898 112.503 20.6374 112.183 20.4584 111.773L18.3577 107.076H6.08035L3.97965 111.773C3.78903 112.186 3.54006 112.503 3.2094 112.694C2.87873 112.885 2.52472 112.998 2.12404 112.998C1.58719 112.998 1.09314 112.807 0.65744 112.432C0.21785 112.062 0 111.605 0 111.07C0 110.765 0.0700232 110.465 0.206179 110.16L9.83826 89.3908C10.0444 88.9223 10.3751 88.5631 10.7991 88.3172C11.2232 88.0712 11.69 87.9463 12.1724 87.9463C12.6547 87.9463 13.1177 88.0712 13.5573 88.3172C13.9813 88.5631 14.312 88.9223 14.5181 89.3908L24.193 110.16C24.3292 110.465 24.3992 110.765 24.3992 111.07Z" fill="white"/>
<path d="M48.9696 110.961C48.9696 111.499 48.7634 111.968 48.3666 112.378C47.9698 112.788 47.4757 112.983 46.9117 112.983C46.3476 112.983 45.7991 112.737 45.305 112.253L33.6812 101.318V110.781C33.6812 111.456 33.475 112.007 33.0782 112.432C32.6658 112.858 32.1173 113.065 31.4171 113.065C30.7169 113.065 30.1956 112.858 29.7988 112.432C29.3864 112.007 29.1958 111.468 29.1958 110.781V90.2184C29.1958 89.543 29.402 88.9925 29.7988 88.5943C30.2111 88.1805 30.7441 87.9892 31.4171 87.9892C32.0901 87.9892 32.6658 88.1961 33.0782 88.5943C33.4906 89.0082 33.6812 89.543 33.6812 90.2184V99.225L44.9199 88.649C45.3323 88.2235 45.8107 88.0165 46.3476 88.0165C46.8844 88.0165 47.3513 88.2235 47.7597 88.6217C48.1682 89.0199 48.3627 89.504 48.3627 90.0388C48.3627 90.5737 48.1293 91.0734 47.6625 91.5107L38.2755 100.131L48.2538 109.454C48.7323 109.895 48.9657 110.402 48.9657 110.957" fill="white"/>
<path d="M62.4101 109.18C68.0625 109.18 70.8907 106.287 70.8907 100.49C70.8907 94.6924 68.0625 91.8425 62.4101 91.8425H58.1153V109.18H62.4101ZM54.1901 112.292C53.805 111.921 53.6144 111.398 53.6144 110.722V90.2965C53.6144 89.6211 53.805 89.098 54.1901 88.7271C54.5753 88.3562 55.1082 88.161 55.7812 88.161H62.6979C66.7204 88.161 69.8481 89.2346 72.0694 91.3974C74.2946 93.5603 75.4033 96.5898 75.4033 100.486C75.4033 104.382 74.2907 107.455 72.0694 109.618C69.8481 111.78 66.7165 112.854 62.6979 112.854H55.7812C55.1082 112.854 54.5753 112.663 54.1901 112.288" fill="white"/>
<path d="M81.9466 112.436C81.5342 112.011 81.3436 111.472 81.3436 110.785V90.2223C81.3436 89.5469 81.5498 88.9965 81.9466 88.5982C82.359 88.1844 82.8919 87.9931 83.5649 87.9931C84.2379 87.9931 84.8137 88.2 85.226 88.5982C85.6384 89.0121 85.829 89.5469 85.829 90.2223V110.785C85.829 111.46 85.6228 112.011 85.226 112.436C84.8137 112.862 84.2651 113.069 83.5649 113.069C82.8919 113.069 82.359 112.85 81.9466 112.436Z" fill="white"/>
<path d="M98.935 112.421C98.5226 112.007 98.332 111.472 98.332 110.797V91.8854H91.9794C90.5789 91.8854 89.8787 91.2647 89.8787 90.0271C89.8787 88.7895 90.5789 88.1688 91.9794 88.1688H109.19C110.59 88.1688 111.29 88.7895 111.29 90.0271C111.29 91.2647 110.59 91.8854 109.19 91.8854H102.837V110.797C102.837 111.472 102.631 112.022 102.218 112.421C101.806 112.835 101.273 113.026 100.6 113.026C99.8998 113.026 99.3512 112.819 98.9389 112.421" fill="white"/>
<path d="M118.02 103.578H127.228L122.63 93.166L118.02 103.578ZM134.802 111.07C134.802 111.609 134.585 112.062 134.157 112.432C133.733 112.803 133.239 112.998 132.674 112.998C132.305 112.998 131.947 112.901 131.632 112.694C131.301 112.503 131.056 112.183 130.862 111.773L128.761 107.076H116.48L114.379 111.773C114.188 112.186 113.939 112.503 113.609 112.694C113.278 112.885 112.924 112.998 112.523 112.998C111.986 112.998 111.492 112.807 111.057 112.432C110.617 112.062 110.399 111.605 110.399 111.07C110.399 110.765 110.469 110.465 110.605 110.16L120.241 89.3908C120.448 88.9223 120.778 88.5631 121.202 88.3172C121.626 88.0712 122.093 87.9463 122.576 87.9463C123.058 87.9463 123.521 88.0712 123.96 88.3172C124.384 88.5631 124.715 88.9223 124.921 89.3908L134.596 110.16C134.732 110.465 134.802 110.765 134.802 111.07Z" fill="white"/>
<path d="M140.151 112.3C139.782 111.929 139.587 111.417 139.587 110.758V90.2379C139.587 89.5625 139.794 89.0121 140.206 88.6139C140.618 88.2 141.151 88.0087 141.824 88.0087C142.497 88.0087 143.073 88.2156 143.485 88.6139C143.898 89.0277 144.088 89.5625 144.088 90.2379V109.149H153.899C155.3 109.149 156 109.77 156 111.007C156 112.245 155.3 112.866 153.899 112.866H141.711C141.038 112.85 140.517 112.674 140.148 112.3" fill="white"/>
<path d="M22.3179 129.868C24.3486 129.868 25.3639 128.822 25.3639 126.729C25.3639 124.636 24.3486 123.602 22.3179 123.602H20.6996V129.856H22.3179V129.872V129.868ZM19.6531 130.723C19.5442 130.614 19.4897 130.477 19.4897 130.297V123.204C19.4897 123.024 19.5442 122.887 19.6531 122.778C19.7621 122.669 19.9021 122.614 20.0927 122.614H22.384C23.7145 122.614 24.7454 122.973 25.4845 123.688C26.212 124.402 26.5815 125.421 26.5815 126.745C26.5815 128.068 26.212 129.071 25.4845 129.801C24.757 130.532 23.7145 130.891 22.384 130.891H20.0927C19.9138 130.891 19.7621 130.836 19.6531 130.727" fill="white"/>
<path d="M29.6587 126.323C29.3825 126.612 29.2191 127.026 29.1647 127.549H32.1835C32.1562 127.01 32.0201 126.612 31.7867 126.323C31.5377 126.034 31.1954 125.897 30.7558 125.897C30.3045 125.882 29.931 126.034 29.6587 126.323ZM33.0471 129.571C33.1171 129.653 33.156 129.762 33.156 129.903C33.156 130.122 33.0199 130.317 32.732 130.481C32.4558 130.633 32.1562 130.758 31.8411 130.84C31.5105 130.922 31.2109 130.965 30.9075 130.965C30.0011 130.965 29.2892 130.703 28.7679 130.165C28.2466 129.641 27.986 128.911 27.986 128.002C27.986 127.408 28.0949 126.901 28.3283 126.444C28.5617 125.987 28.8768 125.644 29.3008 125.382C29.7132 125.136 30.1917 125.011 30.713 125.011C31.4832 125.011 32.0862 125.257 32.5258 125.757C32.9654 126.253 33.1988 126.912 33.1988 127.756C33.1988 128.072 33.0626 128.224 32.7748 128.224H29.1647C29.2464 129.434 29.8221 130.044 30.9075 130.044C31.1954 130.044 31.4443 130.001 31.6466 129.919C31.8528 129.837 32.0862 129.739 32.3196 129.614C32.3469 129.598 32.4013 129.559 32.5102 129.516C32.6192 129.462 32.7009 129.434 32.7709 129.434C32.8954 129.434 32.9771 129.477 33.0471 129.571Z" fill="white"/>
<path d="M34.7704 130.477C34.6342 130.395 34.537 130.297 34.4669 130.2C34.4125 130.102 34.3853 130.008 34.3853 129.883C34.3853 129.759 34.428 129.649 34.4942 129.567C34.5603 129.485 34.6576 129.442 34.7704 129.442C34.8676 129.442 35.031 129.513 35.2489 129.634C35.4823 129.759 35.7157 129.852 35.9335 129.938C36.1514 130.02 36.4276 130.063 36.7699 130.063C37.1395 130.063 37.4429 129.993 37.6491 129.872C37.8553 129.735 37.9642 129.556 37.9642 129.306C37.9642 129.153 37.9214 129.028 37.8397 128.935C37.758 128.841 37.6219 128.755 37.4157 128.689C37.2095 128.622 36.9061 128.537 36.5093 128.455C35.8246 128.302 35.3306 128.111 35.0271 127.849C34.7237 127.603 34.5759 127.244 34.5759 126.815C34.5759 126.483 34.6731 126.182 34.8637 125.905C35.0544 125.628 35.3306 125.425 35.6729 125.273C36.0152 125.121 36.4004 125.054 36.84 125.054C37.1551 125.054 37.4585 125.097 37.7464 125.179C38.0498 125.261 38.3104 125.386 38.5283 125.538C38.7889 125.702 38.9134 125.909 38.9134 126.132C38.9134 126.257 38.8706 126.366 38.8045 126.448C38.7384 126.53 38.6411 126.573 38.5439 126.573C38.4738 126.573 38.4077 126.557 38.3377 126.53C38.2677 126.503 38.1743 126.448 38.0615 126.378C37.8553 126.253 37.6491 126.159 37.4702 126.089C37.2912 126.018 37.0578 125.979 36.7855 125.979C36.4548 125.979 36.1942 126.05 35.988 126.186C35.7974 126.323 35.6846 126.518 35.6846 126.764C35.6846 126.983 35.7818 127.151 35.9608 127.276C36.1397 127.4 36.4976 127.51 36.9917 127.619C37.513 127.728 37.9253 127.853 38.2287 127.99C38.5322 128.127 38.7384 128.306 38.859 128.513C38.9796 128.72 39.0496 128.982 39.0496 129.313C39.0496 129.825 38.8317 130.235 38.4194 130.539C37.9953 130.844 37.4313 131.008 36.7194 131.008C35.9374 130.965 35.28 130.801 34.7704 130.485" fill="white"/>
<path d="M43.9629 130.477C43.8267 130.395 43.7295 130.297 43.6595 130.2C43.605 130.102 43.5778 130.008 43.5778 129.883C43.5778 129.759 43.6206 129.649 43.6867 129.567C43.7528 129.485 43.8501 129.442 43.9629 129.442C44.0601 129.442 44.2235 129.513 44.4414 129.634C44.6748 129.759 44.9082 129.852 45.1261 129.938C45.3439 130.02 45.6201 130.063 45.9624 130.063C46.332 130.063 46.6354 129.993 46.8416 129.872C47.0478 129.735 47.1567 129.556 47.1567 129.306C47.1567 129.153 47.1139 129.028 47.0322 128.935C46.9505 128.841 46.8144 128.755 46.6082 128.689C46.402 128.622 46.0986 128.537 45.7018 128.455C45.0171 128.302 44.5231 128.111 44.2196 127.849C43.9162 127.603 43.7684 127.244 43.7684 126.815C43.7684 126.483 43.8656 126.182 44.0563 125.905C44.2469 125.628 44.5231 125.425 44.8654 125.273C45.2077 125.121 45.5929 125.054 46.0325 125.054C46.3476 125.054 46.651 125.097 46.9505 125.179C47.254 125.261 47.5146 125.386 47.7325 125.538C47.9931 125.702 48.1176 125.909 48.1176 126.132C48.1176 126.257 48.0748 126.366 48.0087 126.448C47.9425 126.53 47.8453 126.573 47.748 126.573C47.678 126.573 47.6119 126.557 47.5419 126.53C47.4718 126.503 47.3785 126.448 47.2656 126.378C47.0595 126.253 46.8533 126.159 46.6743 126.089C46.4954 126.018 46.262 125.979 45.9897 125.979C45.659 125.979 45.3984 126.05 45.1922 126.186C45.0016 126.323 44.8887 126.518 44.8887 126.764C44.8887 126.983 44.986 127.151 45.165 127.276C45.3439 127.4 45.7018 127.51 46.1958 127.619C46.7171 127.728 47.1295 127.853 47.4329 127.99C47.7364 128.127 47.9425 128.306 48.0631 128.513C48.1837 128.72 48.2538 128.982 48.2538 129.313C48.2538 129.825 48.0359 130.235 47.6235 130.539C47.1995 130.844 46.6354 131.008 45.9235 131.008C45.1261 130.965 44.4686 130.801 43.9629 130.485" fill="white"/>
<path d="M53.4744 129.505C53.7506 129.161 53.8868 128.65 53.8868 127.99C53.8868 127.33 53.7506 126.834 53.4627 126.487C53.1865 126.143 52.7897 125.964 52.2685 125.964C51.7472 125.964 51.3504 126.143 51.0742 126.487C50.798 126.83 50.6501 127.342 50.6501 127.99C50.6501 128.638 50.7863 129.161 51.0625 129.505C51.3387 129.848 51.7355 130.016 52.2568 130.016C52.8053 130.032 53.2021 129.852 53.4783 129.505M50.798 130.606C50.3739 130.36 50.0433 130.012 49.8099 129.571C49.5765 129.118 49.4675 128.595 49.4675 128.002C49.4675 127.408 49.5765 126.873 49.8099 126.417C50.0433 125.96 50.3739 125.616 50.798 125.382C51.222 125.136 51.7161 125.023 52.2801 125.023C52.8442 125.023 53.3383 125.148 53.7623 125.382C54.1863 125.628 54.517 125.976 54.7504 126.417C54.9838 126.87 55.0927 127.393 55.0927 128.002C55.0927 128.611 54.9838 129.118 54.7504 129.571C54.517 130.024 54.1863 130.371 53.7623 130.606C53.3383 130.852 52.8442 130.965 52.2801 130.965C51.7161 130.965 51.222 130.84 50.798 130.606Z" fill="white"/>
<path d="M56.7966 130.797C56.6877 130.699 56.6332 130.563 56.6332 130.371V125.605C56.6332 125.413 56.6877 125.273 56.7966 125.179C56.9055 125.081 57.0573 125.027 57.2206 125.027C57.384 125.027 57.5357 125.081 57.6447 125.179C57.7536 125.277 57.8081 125.413 57.8081 125.605V130.371C57.8081 130.563 57.7536 130.703 57.6447 130.797C57.5357 130.895 57.3996 130.934 57.2206 130.934C57.0573 130.934 56.9055 130.891 56.7966 130.797ZM56.6877 123.703C56.5515 123.578 56.4971 123.414 56.4971 123.208C56.4971 123.001 56.5671 122.837 56.6877 122.727C56.8238 122.602 57.0028 122.548 57.2245 122.548C57.4463 122.548 57.6213 122.602 57.7614 122.727C57.8975 122.852 57.9676 123.016 57.9676 123.208C57.9676 123.414 57.8975 123.578 57.7769 123.703C57.6408 123.828 57.4618 123.895 57.2401 123.895C57.0067 123.879 56.8277 123.824 56.6916 123.703" fill="white"/>
<path d="M64.8181 127.326V130.383C64.8181 130.563 64.7637 130.699 64.6548 130.797C64.5458 130.895 64.4097 130.949 64.2152 130.949C64.0362 130.949 63.9001 130.895 63.7911 130.797C63.6822 130.699 63.6277 130.563 63.6277 130.383V127.393C63.6277 126.912 63.5305 126.553 63.3399 126.319C63.1493 126.1 62.8458 125.975 62.449 125.975C61.9705 125.975 61.5854 126.128 61.2975 126.417C61.0097 126.721 60.8735 127.119 60.8735 127.615V130.371C60.8735 130.535 60.819 130.676 60.7101 130.785C60.6012 130.883 60.465 130.938 60.2861 130.938C60.1071 130.938 59.9554 130.883 59.8465 130.785C59.7376 130.688 59.6831 130.551 59.6831 130.371V125.593C59.6831 125.429 59.7376 125.288 59.8465 125.195C59.9554 125.085 60.1071 125.042 60.2705 125.042C60.4339 125.042 60.574 125.097 60.6829 125.195C60.7801 125.292 60.8346 125.429 60.8346 125.593V126.073C61.0252 125.73 61.2859 125.468 61.6165 125.288C61.9472 125.109 62.3284 125.011 62.7563 125.011C64.1413 125.011 64.8298 125.784 64.8298 127.326" fill="white"/>
<path d="M66.7009 130.477C66.5648 130.395 66.4675 130.297 66.3975 130.2C66.343 130.102 66.3158 130.008 66.3158 129.883C66.3158 129.759 66.3586 129.649 66.4247 129.567C66.4909 129.485 66.5881 129.442 66.7009 129.442C66.7982 129.442 66.9616 129.513 67.1794 129.634C67.4128 129.759 67.6462 129.852 67.8641 129.938C68.0819 130.02 68.3581 130.063 68.7005 130.063C69.07 130.063 69.3735 129.993 69.5797 129.872C69.7858 129.735 69.8948 129.556 69.8948 129.306C69.8948 129.153 69.852 129.028 69.7703 128.935C69.6886 128.841 69.5524 128.755 69.3462 128.689C69.1401 128.622 68.8366 128.537 68.4398 128.455C67.7552 128.302 67.2611 128.111 66.9577 127.849C66.6542 127.603 66.5064 127.244 66.5064 126.815C66.5064 126.483 66.6037 126.182 66.7943 125.905C66.9849 125.628 67.2611 125.425 67.6034 125.273C67.9458 125.121 68.3309 125.054 68.7705 125.054C69.0856 125.054 69.389 125.097 69.6886 125.179C69.992 125.261 70.2527 125.386 70.4705 125.538C70.7311 125.702 70.8556 125.909 70.8556 126.132C70.8556 126.257 70.8128 126.366 70.7467 126.448C70.6806 126.53 70.5833 126.573 70.4861 126.573C70.416 126.573 70.3499 126.557 70.2799 126.53C70.2099 126.503 70.1165 126.448 70.0037 126.378C69.7975 126.253 69.5913 126.159 69.4124 126.089C69.2334 126.018 69 125.979 68.7277 125.979C68.397 125.979 68.1364 126.05 67.9302 126.186C67.7396 126.323 67.6268 126.518 67.6268 126.764C67.6268 126.983 67.724 127.151 67.903 127.276C68.0819 127.4 68.4398 127.51 68.9339 127.619C69.4552 127.728 69.8675 127.853 70.1554 127.99C70.4588 128.127 70.665 128.306 70.7856 128.513C70.9062 128.72 70.9762 128.982 70.9762 129.313C70.9762 129.825 70.7584 130.235 70.346 130.539C69.922 130.844 69.3579 131.008 68.646 131.008C67.8485 130.965 67.2066 130.801 66.697 130.485" fill="white"/>
<path d="M77.1967 126.323C76.9205 126.612 76.7571 127.026 76.7027 127.549H79.7214C79.6942 127.01 79.5581 126.612 79.3246 126.323C79.0796 126.034 78.7333 125.897 78.2937 125.897C77.8269 125.882 77.469 126.034 77.1967 126.323ZM80.589 129.571C80.659 129.653 80.6979 129.762 80.6979 129.903C80.6979 130.122 80.5617 130.317 80.2739 130.481C79.9977 130.633 79.6981 130.758 79.383 130.84C79.0523 130.922 78.7528 130.965 78.4494 130.965C77.5429 130.965 76.831 130.703 76.3098 130.165C75.7885 129.641 75.5278 128.911 75.5278 128.002C75.5278 127.408 75.6368 126.901 75.8702 126.444C76.1036 125.987 76.4187 125.644 76.8427 125.382C77.2551 125.136 77.7336 125.011 78.2704 125.011C79.0407 125.011 79.6436 125.257 80.0832 125.757C80.5228 126.253 80.7562 126.912 80.7562 127.756C80.7562 128.072 80.6201 128.224 80.3322 128.224H76.7221C76.8038 129.434 77.3796 130.044 78.4649 130.044C78.7528 130.044 79.0018 130.001 79.2079 129.919C79.4141 129.837 79.6475 129.739 79.8809 129.614C79.9082 129.598 79.9626 129.559 80.0716 129.516C80.1805 129.462 80.2622 129.434 80.3322 129.434C80.4411 129.434 80.5228 129.477 80.5928 129.571" fill="white"/>
<path d="M85.3738 130.172C85.4438 130.243 85.4827 130.352 85.4827 130.489C85.4827 130.641 85.4283 130.766 85.3038 130.848C85.1793 130.93 85.0004 130.957 84.7669 130.945L84.4518 130.918C83.8216 130.875 83.3548 130.672 83.0397 130.34C82.7246 129.997 82.5729 129.501 82.5729 128.825V126.069H81.8727C81.5303 126.069 81.363 125.917 81.363 125.616C81.363 125.48 81.4058 125.37 81.4992 125.284C81.5965 125.203 81.717 125.16 81.8843 125.16H82.5846V123.949C82.5846 123.77 82.639 123.633 82.7479 123.524C82.8569 123.426 82.993 123.372 83.172 123.372C83.3509 123.372 83.5026 123.426 83.6116 123.524C83.7205 123.621 83.775 123.77 83.775 123.949V125.16H84.9264C85.0898 125.16 85.2143 125.203 85.3116 125.284C85.4088 125.366 85.4477 125.476 85.4477 125.616C85.4477 125.769 85.4049 125.878 85.3116 125.96C85.2182 126.042 85.0937 126.085 84.9264 126.085H83.775V128.923C83.775 129.294 83.8566 129.556 84.0084 129.735C84.1601 129.899 84.3935 130.012 84.7086 130.024L85.0393 130.051C85.1754 130.051 85.2999 130.106 85.3699 130.176" fill="white"/>
<path d="M93.5665 129.501C93.8427 129.142 93.9905 128.646 93.9905 127.998C93.9905 127.35 93.8544 126.842 93.5782 126.495C93.302 126.136 92.9052 125.972 92.3994 125.972C91.8937 125.972 91.4814 126.151 91.2052 126.495C90.9173 126.838 90.7811 127.334 90.7811 127.982C90.7811 128.63 90.9173 129.126 91.2207 129.497C91.5086 129.856 91.9054 130.047 92.415 130.047C92.8935 130.02 93.2942 129.84 93.5665 129.497M94.9942 122.7C95.1031 122.798 95.1576 122.934 95.1576 123.114V130.371C95.1576 130.551 95.1031 130.688 95.0059 130.797C94.8969 130.895 94.7608 130.949 94.5818 130.949C94.4029 130.949 94.2667 130.895 94.1578 130.797C94.0489 130.699 93.9944 130.551 93.9944 130.371V129.903C93.831 130.247 93.5704 130.508 93.2514 130.703C92.9207 130.883 92.5512 130.98 92.1116 130.98C91.6175 130.98 91.1779 130.856 90.7928 130.61C90.4077 130.364 90.1081 130.004 89.8864 129.548C89.6647 129.091 89.5713 128.572 89.5713 127.99C89.5713 127.408 89.6802 126.873 89.8864 126.432C90.1042 125.991 90.396 125.648 90.7772 125.398C91.1585 125.148 91.602 125.039 92.096 125.039C92.52 125.039 92.9052 125.136 93.2203 125.316C93.5509 125.495 93.796 125.757 93.9633 126.1V123.126C93.9633 122.962 94.0178 122.837 94.1267 122.727C94.2356 122.63 94.3718 122.575 94.5507 122.575C94.7413 122.548 94.8814 122.602 94.9903 122.7" fill="white"/>
<path d="M98.3903 126.323C98.1141 126.612 97.9507 127.026 97.8963 127.549H100.915C100.888 127.01 100.752 126.612 100.518 126.323C100.273 126.034 99.9269 125.897 99.4873 125.897C99.0205 125.882 98.6626 126.034 98.3903 126.323ZM101.779 129.571C101.849 129.653 101.888 129.762 101.888 129.903C101.888 130.122 101.751 130.317 101.464 130.481C101.187 130.633 100.888 130.758 100.573 130.84C100.242 130.922 99.9425 130.965 99.6391 130.965C98.7326 130.965 98.0207 130.703 97.4995 130.165C96.9782 129.641 96.7175 128.911 96.7175 128.002C96.7175 127.408 96.8265 126.901 97.0599 126.444C97.2933 125.987 97.6084 125.644 98.0324 125.382C98.4448 125.136 98.9233 125.011 99.4445 125.011C100.215 125.011 100.818 125.257 101.257 125.757C101.697 126.253 101.93 126.912 101.93 127.756C101.93 128.072 101.794 128.224 101.506 128.224H97.8963C97.9779 129.434 98.5537 130.044 99.6391 130.044C99.9269 130.044 100.176 130.001 100.394 129.919C100.6 129.837 100.818 129.739 101.051 129.614C101.078 129.598 101.133 129.559 101.242 129.516C101.351 129.462 101.432 129.434 101.502 129.434C101.611 129.434 101.709 129.477 101.779 129.571Z" fill="white"/>
<path d="M103.502 130.477C103.366 130.395 103.269 130.297 103.199 130.2C103.144 130.102 103.117 130.008 103.117 129.883C103.117 129.759 103.16 129.649 103.226 129.567C103.292 129.485 103.389 129.442 103.502 129.442C103.599 129.442 103.763 129.513 103.981 129.634C104.214 129.759 104.447 129.852 104.665 129.938C104.883 130.02 105.159 130.063 105.502 130.063C105.871 130.063 106.175 129.993 106.381 129.872C106.587 129.735 106.696 129.556 106.696 129.306C106.696 129.153 106.653 129.028 106.571 128.935C106.49 128.837 106.354 128.755 106.147 128.689C105.941 128.622 105.638 128.537 105.241 128.455C104.556 128.302 104.062 128.111 103.759 127.849C103.455 127.603 103.308 127.244 103.308 126.815C103.308 126.483 103.405 126.182 103.595 125.905C103.786 125.628 104.062 125.425 104.405 125.273C104.747 125.121 105.132 125.054 105.572 125.054C105.887 125.054 106.19 125.097 106.478 125.179C106.781 125.261 107.042 125.386 107.26 125.538C107.521 125.702 107.645 125.909 107.645 126.132C107.645 126.257 107.602 126.366 107.536 126.448C107.47 126.53 107.373 126.573 107.276 126.573C107.206 126.573 107.139 126.557 107.069 126.53C106.999 126.503 106.906 126.448 106.793 126.378C106.587 126.253 106.381 126.159 106.202 126.089C106.023 126.018 105.789 125.979 105.517 125.979C105.187 125.979 104.926 126.05 104.72 126.186C104.529 126.323 104.416 126.518 104.416 126.764C104.416 126.983 104.514 127.151 104.692 127.276C104.871 127.4 105.229 127.51 105.723 127.619C106.245 127.728 106.657 127.853 106.945 127.99C107.248 128.127 107.454 128.306 107.575 128.513C107.7 128.72 107.766 128.982 107.766 129.313C107.766 129.825 107.548 130.235 107.135 130.539C106.711 130.844 106.147 131.008 105.435 131.008C104.654 130.965 104.008 130.801 103.502 130.485" fill="white"/>
<path d="M112.831 130.797C112.722 130.699 112.667 130.563 112.667 130.371V123.114C112.667 122.923 112.722 122.782 112.831 122.688C112.94 122.591 113.091 122.536 113.255 122.536C113.418 122.536 113.57 122.591 113.679 122.688C113.788 122.786 113.842 122.934 113.842 123.114V130.371C113.842 130.563 113.788 130.703 113.679 130.797C113.57 130.895 113.434 130.934 113.255 130.934C113.076 130.934 112.94 130.891 112.831 130.797Z" fill="white"/>
<path d="M115.892 130.797C115.783 130.699 115.729 130.563 115.729 130.371V125.605C115.729 125.413 115.783 125.273 115.892 125.179C116.001 125.081 116.153 125.027 116.316 125.027C116.48 125.027 116.631 125.081 116.74 125.179C116.849 125.277 116.904 125.413 116.904 125.605V130.371C116.904 130.563 116.849 130.703 116.74 130.797C116.631 130.895 116.495 130.934 116.316 130.934C116.137 130.934 116.001 130.891 115.892 130.797ZM115.772 123.703C115.636 123.578 115.581 123.414 115.581 123.208C115.581 123.001 115.651 122.837 115.772 122.727C115.908 122.602 116.087 122.548 116.309 122.548C116.53 122.548 116.705 122.602 116.845 122.727C116.982 122.852 117.052 123.016 117.052 123.208C117.052 123.414 116.982 123.578 116.861 123.703C116.725 123.828 116.546 123.895 116.324 123.895C116.102 123.895 115.912 123.824 115.776 123.703" fill="white"/>
<path d="M120.129 126.323C119.853 126.612 119.689 127.026 119.635 127.549H122.653C122.626 127.01 122.49 126.612 122.257 126.323C122.012 126.034 121.665 125.897 121.226 125.897C120.759 125.882 120.401 126.034 120.129 126.323ZM123.517 129.571C123.587 129.653 123.626 129.762 123.626 129.903C123.626 130.122 123.49 130.317 123.202 130.481C122.926 130.633 122.626 130.758 122.311 130.84C121.98 130.922 121.681 130.965 121.377 130.965C120.471 130.965 119.759 130.703 119.238 130.165C118.717 129.641 118.456 128.911 118.456 128.002C118.456 127.408 118.565 126.901 118.798 126.444C119.032 125.987 119.347 125.644 119.771 125.382C120.183 125.136 120.662 125.011 121.183 125.011C121.953 125.011 122.556 125.257 122.996 125.757C123.435 126.253 123.669 126.912 123.669 127.756C123.669 128.072 123.533 128.224 123.245 128.224H119.635C119.716 129.434 120.292 130.044 121.377 130.044C121.665 130.044 121.914 130.001 122.12 129.919C122.327 129.837 122.56 129.739 122.793 129.614C122.821 129.598 122.875 129.559 122.984 129.516C123.093 129.462 123.175 129.434 123.245 129.434C123.354 129.434 123.451 129.477 123.521 129.571" fill="white"/>
<path d="M130.321 127.326V130.383C130.321 130.563 130.267 130.699 130.158 130.797C130.049 130.895 129.913 130.949 129.718 130.949C129.539 130.949 129.387 130.895 129.294 130.797C129.185 130.699 129.142 130.563 129.142 130.383V127.393C129.142 126.912 129.045 126.553 128.854 126.319C128.664 126.1 128.36 125.975 127.964 125.975C127.485 125.975 127.1 126.128 126.812 126.417C126.524 126.721 126.372 127.119 126.372 127.615V130.371C126.372 130.535 126.318 130.676 126.221 130.785C126.112 130.883 125.976 130.938 125.797 130.938C125.618 130.938 125.466 130.883 125.357 130.785C125.248 130.688 125.194 130.551 125.194 130.371V125.593C125.194 125.429 125.248 125.288 125.357 125.195C125.466 125.085 125.618 125.042 125.781 125.042C125.945 125.042 126.085 125.097 126.194 125.195C126.291 125.292 126.345 125.429 126.345 125.593V126.073C126.536 125.73 126.796 125.468 127.127 125.288C127.458 125.109 127.839 125.011 128.267 125.011C129.64 125.011 130.325 125.784 130.325 127.326" fill="white"/>
<path d="M132.204 130.477C132.068 130.395 131.97 130.297 131.9 130.2C131.846 130.102 131.819 130.008 131.819 129.883C131.819 129.759 131.861 129.649 131.928 129.567C131.994 129.485 132.091 129.442 132.204 129.442C132.301 129.442 132.464 129.513 132.682 129.634C132.916 129.759 133.149 129.852 133.367 129.938C133.585 130.02 133.877 130.063 134.203 130.063C134.573 130.063 134.876 129.993 135.082 129.872C135.289 129.735 135.398 129.556 135.398 129.306C135.398 129.153 135.355 129.028 135.273 128.935C135.191 128.837 135.055 128.755 134.849 128.689C134.643 128.622 134.339 128.537 133.943 128.455C133.258 128.302 132.764 128.111 132.46 127.849C132.157 127.603 132.009 127.244 132.009 126.815C132.009 126.483 132.106 126.182 132.297 125.905C132.488 125.628 132.764 125.425 133.106 125.273C133.449 125.121 133.834 125.054 134.273 125.054C134.588 125.054 134.892 125.097 135.191 125.179C135.495 125.261 135.755 125.386 135.973 125.538C136.234 125.702 136.358 125.909 136.358 126.132C136.358 126.257 136.316 126.366 136.25 126.448C136.183 126.53 136.086 126.573 135.989 126.573C135.919 126.573 135.853 126.557 135.783 126.53C135.713 126.503 135.619 126.448 135.506 126.378C135.3 126.253 135.094 126.159 134.915 126.089C134.736 126.018 134.503 125.979 134.231 125.979C133.9 125.979 133.639 126.05 133.433 126.186C133.242 126.323 133.13 126.518 133.13 126.764C133.13 126.983 133.227 127.151 133.406 127.276C133.585 127.4 133.943 127.51 134.437 127.619C134.958 127.728 135.37 127.853 135.658 127.99C135.962 128.127 136.168 128.306 136.288 128.513C136.413 128.72 136.479 128.982 136.479 129.313C136.479 129.825 136.261 130.235 135.849 130.539C135.425 130.844 134.861 131.008 134.149 131.008C133.367 130.965 132.709 130.801 132.2 130.485" fill="white"/>
<mask id="mask0_1_257" style="mask-type:luminance" maskUnits="userSpaceOnUse" x="54" y="31" width="22" height="28">
<path d="M63.3826 33.8519C60.3911 37.5998 54.7386 42.8039 54.7386 47.9533C54.7386 53.7508 59.4185 58.463 65.211 58.463C71.0035 58.463 75.6834 53.7664 75.6834 47.9533C75.6834 42.8039 70.0309 37.5959 67.0355 33.8519L65.2227 31.7047L63.3826 33.8519Z" fill="white"/>
</mask>
<g mask="url(#mask0_1_257)">
<path d="M63.3825 33.8519C60.3909 37.5998 54.7346 42.8039 54.7346 47.9533C54.7346 53.7508 59.4145 58.463 65.207 58.463C70.9839 58.463 75.6793 53.7664 75.6793 47.9533C75.6793 42.8039 70.0269 37.5959 67.0315 33.8519L65.2186 31.7047L63.3786 33.8519H63.3825Z" fill="white"/>
</g>
<mask id="mask1_1_257" style="mask-type:luminance" maskUnits="userSpaceOnUse" x="80" y="31" width="22" height="28">
<path d="M88.9878 33.8519C85.9962 37.5998 80.3282 42.8039 80.3282 47.9533C80.3282 53.7508 85.0081 58.463 90.8006 58.463C96.5931 58.463 101.257 53.7664 101.257 47.9533C101.257 42.8039 95.605 37.5959 92.6134 33.8519L90.8006 31.7047L88.9878 33.8519Z" fill="white"/>
</mask>
<g mask="url(#mask1_1_257)">
<path d="M88.9878 33.8519C85.9962 37.5998 80.3282 42.8039 80.3282 47.9533C80.3282 53.7508 85.0081 58.463 90.8006 58.463C96.5775 58.463 101.257 53.7664 101.257 47.9533C101.257 42.8039 95.605 37.5959 92.6095 33.8519L90.7967 31.7047L88.9839 33.8519H88.9878Z" fill="white"/>
</g>
<mask id="mask2_1_257" style="mask-type:luminance" maskUnits="userSpaceOnUse" x="67" y="13" width="22" height="27">
<path d="M67.5374 23.5374C67.5374 28.6869 73.1898 33.8949 76.1852 37.6388L77.998 39.7861L79.8109 37.6388C82.8024 33.891 88.4704 28.6869 88.4704 23.5374C88.4704 17.74 83.7905 13.0434 77.998 13.0434C72.2056 13.0434 67.5412 17.74 67.5412 23.5374H67.5374Z" fill="white"/>
</mask>
<g mask="url(#mask2_1_257)">
<path d="M67.5374 23.5374C67.5374 28.6869 73.1898 33.8949 76.1852 37.6388L77.998 39.7861L79.8109 37.6388C82.8024 33.891 88.4704 28.6869 88.4704 23.5374C88.4704 17.74 83.7905 13.0434 77.998 13.0434C72.2211 13.0434 67.5412 17.74 67.5412 23.5374" fill="white"/>
</g>
<mask id="mask3_1_257" style="mask-type:luminance" maskUnits="userSpaceOnUse" x="39" y="0" width="78" height="79">
<path d="M50.4245 11.4584C43.0565 18.8526 39.0068 28.6752 39.0068 39.1263C39.0068 49.5774 43.0682 59.4117 50.4245 66.7942C57.7925 74.1884 67.5802 78.2525 77.9942 78.2525C88.4082 78.2525 98.2076 74.1767 105.579 66.7942C112.947 59.3999 116.997 49.5774 116.997 39.1263C116.997 28.6752 112.936 18.8409 105.579 11.4584C98.2114 4.0641 88.4277 0 77.9981 0C67.5685 0 57.7847 4.0641 50.4284 11.4584M42.3563 39.1263C42.3563 19.3757 58.3177 3.35747 77.9981 3.35747C97.6785 3.35747 113.64 19.3757 113.64 39.1263C113.64 58.8768 97.6785 74.8951 77.9981 74.8951C58.3177 74.9107 42.3563 58.8924 42.3563 39.1263Z" fill="white"/>
</mask>
<g mask="url(#mask3_1_257)">
<path d="M50.4245 11.4584C43.0565 18.8526 39.0068 28.6752 39.0068 39.1263C39.0068 49.5813 43.0682 59.4117 50.4245 66.7942C57.7925 74.1884 67.5802 78.2525 77.9942 78.2525C88.4121 78.2525 98.2076 74.1767 105.579 66.7942C112.947 59.3999 116.997 49.5774 116.997 39.1263C116.997 28.6713 112.936 18.8409 105.579 11.4584C98.2114 4.0641 88.4277 0 77.9981 0C67.5802 0 57.7847 4.0641 50.4284 11.4584M42.3563 39.1263C42.3563 19.3757 58.3177 3.35747 77.9981 3.35747C97.6902 3.35747 113.64 19.3757 113.64 39.1263C113.64 58.8885 97.6785 74.8951 77.9981 74.8951C58.3177 74.9107 42.3563 58.8924 42.3563 39.1263Z" fill="white"/>
</g>
</g>
<defs>
<clipPath id="clip0_1_257">
<rect width="156" height="131" fill="white"/>
</clipPath>
</defs>
</svg>
